<svg xmlns="http://www.w3.org/2000/svg" viewBox="0 0 120 120" xml:space="preserve"><g fill="#F65314"><path d="M59.69 56.224a.879.879 0 1 0 0 1.758.879.879 0 0 0 0-1.758zM54.415 56.224a.88.88 0 1 0-.002 1.758.88.88 0 0 0 .002-1.758zM64.968 56.224a.88.88 0 1 0-.002 1.758.88.88 0 0 0 .002-1.758zM62.329 60.62a.88.88 0 1 0 .002 1.76.88.88 0 0 0-.002-1.76zM67.605 60.62a.88.88 0 1 0 0 1.757.88.88 0 0 0 0-1.757zM57.053 60.62a.88.88 0 1 0 .88.88.882.882 0 0 0-.88-.88zM51.776 60.62a.88.88 0 1 0 .002 1.76.88.88 0 0 0-.002-1.76zM59.69 65.018a.88.88 0 1 0 .001 1.76.88.88 0 0 0-.001-1.76zM54.415 65.018a.88.88 0 1 0 0 1.76.88.88 0 0 0 0-1.76zM64.968 65.018a.88.88 0 1 0 0 1.76.88.88 0 0 0 0-1.76zM62.329 69.414a.88.88 0 1 0 .002 1.76.88.88 0 0 0-.002-1.76zM57.053 69.414a.88.88 0 1 0 .88.88.882.882 0 0 0-.88-.88z"/></g><path fill="#F65314" d="M71.817 28.273s-.666 3.962-3.883 6.727c-2.516-1.26-5.358-1.841-8.371-1.841-3.012 0-5.855.581-8.371 1.842-3.215-2.766-3.827-6.728-3.827-6.728s-5.23 2.264-3.878 8.566l.027-.006a8.449 8.449 0 0 1 5.11-1.72c.665 0 1.31.084 1.931.229l.041.011c3.74.891 6.524 4.244 6.524 8.257a8.447 8.447 0 0 1-1.772 5.179l4.215 4.215 4.215-4.215a8.452 8.452 0 0 1-1.771-5.179c0-4.012 2.784-7.366 6.524-8.257l.041-.011a8.492 8.492 0 0 1 1.932-.229c1.922 0 3.688.645 5.111 1.72l.024.006c1.352-6.303-3.822-8.566-3.822-8.566z"/><g fill="#FB0"><path d="M47.839 57.338c0-1.883.068-3.626.185-5.263a8.47 8.47 0 0 1-6.199-3.39c-.534 2.53-.825 5.402-.825 8.652 0 17.488 8.311 19.788 18.564 19.788-6.475.001-11.725-2.299-11.725-19.787zM77.304 48.686a8.474 8.474 0 0 1-6.199 3.39c.117 1.637.185 3.38.185 5.263 0 17.488-5.249 19.788-11.726 19.788 10.254 0 18.565-2.3 18.565-19.788 0-3.251-.292-6.123-.825-8.653zM81.62 67.355a3.906 3.906 0 0 1-3.908 3.908 3.906 3.906 0 0 1 3.908 3.909 3.906 3.906 0 0 1 3.908-3.909 3.906 3.906 0 0 1-3.908-3.908z"/><circle cx="32.205" cy="64.423" r="3.908"/><circle cx="36.675" cy="35.107" r="3.908"/><path d="M86.923 41.948a3.906 3.906 0 0 1-3.908 3.908 3.906 3.906 0 0 1 3.908 3.909 3.906 3.906 0 0 1 3.908-3.909 3.906 3.906 0 0 1-3.908-3.908z"/></g><g fill="#00A1F1"><path d="M48.625 35.114a8.496 8.496 0 1 0 0 16.993 8.496 8.496 0 0 0 0-16.993zm0 11.426a2.932 2.932 0 1 1 0-5.863 2.932 2.932 0 0 1 0 5.863zM70.503 35.113a8.497 8.497 0 1 0 .002 16.994 8.497 8.497 0 0 0-.002-16.994zm0 11.427a2.932 2.932 0 1 1 0-5.863 2.932 2.932 0 0 1 0 5.863z"/></g><path fill="#7CBB00" d="M31.429 77.204a3.908 3.908 0 0 0-3.132 3.83v5.864a3.908 3.908 0 0 0 3.132 3.83c2.791-3.76 2.791-9.763 0-13.524z"/><g fill="#1A171B"><path d="M90.831 77.859a.732.732 0 0 0 0-1.464h-21.15c5.244-2.107 9.182-7.152 9.182-19.055 0-3.097-.296-5.885-.815-8.431a9.17 9.17 0 0 0 1.684-5.3c0-5.088-4.14-9.229-9.229-9.229-.632 0-1.25.064-1.846.186-2.621-1.404-5.68-2.14-9.094-2.14-3.414 0-6.476.733-9.097 2.14a9.251 9.251 0 0 0-1.842-.186c-5.089 0-9.229 4.141-9.229 9.229 0 1.962.62 3.779 1.668 5.275-.516 2.552-.797 5.357-.797 8.455 0 11.902 3.938 16.947 9.181 19.055H32.206a4.71 4.71 0 0 0-.922.092h-.001a4.655 4.655 0 0 0-3.72 4.549v5.864a4.652 4.652 0 0 0 3.72 4.549l.009.002c.297.058.615.091.914.091h58.625a.732.732 0 0 0 0-1.465h-1.662c-2.633-3.443-2.633-8.772 0-12.216h1.662zm-23.922-2.093c3.213-2.558 5.113-7.911 5.113-18.427 0-1.616-.058-3.144-.148-4.614a9.19 9.19 0 0 0 4.971-2.429c.358 2.154.551 4.494.551 7.043-.001 12.781-4.45 17.048-10.487 18.427zm-11.52-25.901 3.657 3.657a.732.732 0 0 0 1.038 0l3.656-3.657a9.197 9.197 0 0 0 6.673 2.969 72.32 72.32 0 0 1 .145 4.506c0 17.583-5.431 19.055-10.993 19.055S48.573 74.923 48.573 57.34c0-1.584.059-3.071.15-4.506a9.208 9.208 0 0 0 6.666-2.969zm22.877-6.256c0 4.281-3.482 7.764-7.764 7.764-4.28 0-7.764-3.482-7.764-7.764 0-4.28 3.483-7.763 7.764-7.763 4.282 0 7.764 3.482 7.764 7.763zm-18.703-9.717c2.594 0 4.942.485 7.042 1.363-3.144 1.474-5.331 4.659-5.331 8.354 0 1.887.57 3.641 1.545 5.104l-3.256 3.256-3.255-3.256a9.165 9.165 0 0 0 1.546-5.104c0-3.714-2.211-6.914-5.381-8.377 2.108-.884 4.487-1.34 7.09-1.34zm-18.702 9.717c0-4.28 3.483-7.763 7.764-7.763 4.28 0 7.763 3.482 7.763 7.763s-3.482 7.764-7.763 7.764c-4.28-.001-7.764-3.483-7.764-7.764zm.87 13.73c0-2.55.197-4.886.557-7.038a9.201 9.201 0 0 0 4.981 2.426 68.67 68.67 0 0 0-.162 4.612c0 10.516 1.898 15.869 5.112 18.427-6.037-1.379-10.488-5.646-10.488-18.427zM31.115 89.881a3.186 3.186 0 0 1-2.085-2.982v-5.864c0-1.344.853-2.531 2.085-2.981 2.211 3.369 2.211 8.456 0 11.827zm56.265.194H32.723c2.053-3.639 2.053-8.576 0-12.216H87.38c-2.246 3.655-2.246 8.561 0 12.216z"/><path d="M59.075 85.433h-6.591a.733.733 0 0 0 0 1.464h6.591a.732.732 0 0 0 0-1.464zM63.227 86.165c0 .404.328.732.733.732h17.601a.732.732 0 0 0 0-1.464H63.96a.733.733 0 0 0-.733.732zM39.781 82.501h26.625a.733.733 0 0 0 0-1.465H39.781a.733.733 0 1 0 0 1.465zM71.292 82.501h3.429a.733.733 0 0 0 0-1.465h-3.429a.733.733 0 0 0 0 1.465zM28.297 51.48a.733.733 0 0 0 .733-.733V28.273a.733.733 0 0 0-1.466 0v22.474a.733.733 0 0 0 .733.733zM28.297 60.034a.733.733 0 0 0 .733-.732v-3.67a.733.733 0 0 0-1.466 0v3.67a.732.732 0 0 0 .733.732zM90.831 57.594a.732.732 0 0 0-.732.732v14.655a.733.733 0 1 0 1.464 0V58.326a.732.732 0 0 0-.732-.732zM90.831 49.038a.732.732 0 0 0-.732.732v3.669a.733.733 0 1 0 1.464 0V49.77a.733.733 0 0 0-.732-.732z"/></g></svg>